<svg width="16" height="16" fill="none" xmlns="http://www.w3.org/2000/svg"><path d="M.727 8c0-2.742 0-4.114.853-4.966.852-.851 2.223-.852 4.965-.852h2.91c2.742 0 4.114 0 4.965.852.852.853.853 2.224.853 4.966v1.455c0 2.742 0 4.114-.853 4.965-.852.852-2.223.853-4.965.853h-2.91c-2.742 0-4.114 0-4.965-.853-.852-.852-.853-2.223-.853-4.965V8z" stroke="#212121" stroke-opacity=".7" stroke-width="1.091"/><path d="M4.364 2.182V1.09m7.272 1.09V1.09M1.091 5.818h13.818" stroke="#212121" stroke-opacity=".7" stroke-width="1.091" stroke-linecap="round"/><path d="M12.364 11.636a.727.727 0 11-1.455 0 .727.727 0 011.455 0zm0-2.909a.727.727 0 11-1.455 0 .727.727 0 011.455 0zm-3.637 2.91a.727.727 0 11-1.454 0 .727.727 0 011.454 0zm0-2.91a.727.727 0 11-1.454 0 .727.727 0 011.454 0zm-3.636 2.91a.727.727 0 11-1.455 0 .727.727 0 011.455 0zm0-2.91a.727.727 0 11-1.455 0 .727.727 0 011.455 0z" fill="#212121" fill-opacity=".7"/></svg>