<svg width="175" height="44" fill="none" xmlns="http://www.w3.org/2000/svg"><path d="M63.163 14.376v6.178h6.734v1.988h-6.734v6.363h7.53v1.989H60.75V12.387h9.943v1.989h-7.53zm18.233 16.518l-3.447-5.409-3.314 5.409h-2.519l4.693-7.212-4.692-7.318h2.73l3.447 5.383 3.288-5.383H84.1l-4.667 7.185 4.693 7.345h-2.73zm7.517-12.541v8.564c0 .707.15 1.21.451 1.511.3.283.822.424 1.564.424h1.777v2.042H90.53c-1.344 0-2.351-.31-3.023-.928-.672-.619-1.007-1.635-1.007-3.05v-8.563h-1.883v-1.989H86.5v-3.659h2.412v3.66h3.792v1.988h-3.792zm19.442 4.72c0 .459-.027.945-.08 1.457H96.662c.088 1.432.575 2.555 1.458 3.368.902.795 1.989 1.193 3.262 1.193 1.042 0 1.909-.239 2.598-.716a3.907 3.907 0 001.485-1.962h2.598a6.311 6.311 0 01-2.333 3.42c-1.167.866-2.616 1.3-4.348 1.3-1.379 0-2.617-.31-3.712-.929-1.079-.618-1.927-1.493-2.546-2.624-.618-1.15-.928-2.475-.928-3.977 0-1.503.3-2.82.902-3.951.6-1.131 1.44-1.997 2.519-2.598 1.096-.619 2.35-.928 3.765-.928 1.378 0 2.598.3 3.658.901a6.132 6.132 0 012.44 2.492c.583 1.043.875 2.228.875 3.553zm-2.493-.505c0-.919-.203-1.705-.609-2.36a3.842 3.842 0 00-1.671-1.51c-.689-.354-1.458-.53-2.307-.53-1.219 0-2.262.388-3.128 1.166-.849.778-1.335 1.856-1.458 3.235h9.173zm12.226-6.469c1.768 0 3.2.54 4.295 1.617 1.096 1.061 1.644 2.599 1.644 4.614v8.564h-2.386v-8.22c0-1.449-.362-2.554-1.087-3.314-.725-.777-1.715-1.166-2.97-1.166-1.272 0-2.289.398-3.049 1.193-.742.795-1.113 1.953-1.113 3.473v8.034h-2.413v-14.53h2.413v2.068a4.808 4.808 0 011.935-1.723c.831-.407 1.741-.61 2.731-.61zm12.293 2.254v8.564c0 .707.15 1.21.451 1.511.3.283.822.424 1.564.424h1.777v2.042h-2.174c-1.344 0-2.351-.31-3.023-.928-.672-.619-1.008-1.635-1.008-3.05v-8.563h-1.882v-1.989h1.882v-3.659h2.413v3.66h3.792v1.988h-3.792zm7.431-4.348c-.46 0-.849-.16-1.167-.478a1.587 1.587 0 01-.477-1.166c0-.46.159-.849.477-1.167a1.587 1.587 0 011.167-.477c.442 0 .813.159 1.113.477.319.318.478.707.478 1.167 0 .46-.159.848-.478 1.166-.3.319-.671.478-1.113.478zm1.166 2.36v14.529h-2.412v-14.53h2.412zm9.919 14.767c-1.361 0-2.598-.309-3.712-.928-1.096-.618-1.962-1.493-2.598-2.624-.619-1.15-.928-2.475-.928-3.977 0-1.485.318-2.793.954-3.924.654-1.15 1.538-2.024 2.652-2.625 1.113-.619 2.359-.928 3.738-.928s2.625.31 3.738.928a6.51 6.51 0 012.625 2.598c.654 1.131.981 2.448.981 3.95 0 1.503-.336 2.829-1.007 3.978a6.827 6.827 0 01-2.678 2.624c-1.131.62-2.386.928-3.765.928zm0-2.12a5.1 5.1 0 002.439-.61c.76-.407 1.37-1.017 1.83-1.83.477-.813.716-1.803.716-2.97 0-1.166-.23-2.156-.69-2.969-.459-.813-1.06-1.414-1.803-1.803a4.94 4.94 0 00-2.412-.61 5 5 0 00-2.44.61c-.724.389-1.308.99-1.75 1.803-.442.813-.662 1.803-.662 2.97 0 1.184.212 2.182.636 2.996.442.813 1.025 1.422 1.75 1.829.724.389 1.52.583 2.386.583zm17.171-12.913c1.768 0 3.2.54 4.296 1.617 1.096 1.061 1.644 2.599 1.644 4.614v8.564h-2.387v-8.22c0-1.449-.362-2.554-1.087-3.314-.724-.777-1.714-1.166-2.969-1.166-1.273 0-2.289.398-3.049 1.193-.743.795-1.114 1.953-1.114 3.473v8.034h-2.413v-14.53h2.413v2.068a4.804 4.804 0 011.936-1.723c.83-.407 1.741-.61 2.73-.61z" fill="#FF7F25"/><g clip-path="url(#clip0_5_277)"><path fill-rule="evenodd" clip-rule="evenodd" d="M43.558 21.457a9.127 9.127 0 01-2.408.322h-9.737a9.116 9.116 0 00-9.116 9.115v10.773c0 .648-.068 1.281-.196 1.891a9.122 9.122 0 01-.322-2.408v-9.737a9.116 9.116 0 00-9.115-9.116H1.89A9.167 9.167 0 010 22.1a9.12 9.12 0 012.409-.322h9.737a9.116 9.116 0 009.115-9.115V1.89c0-.648.068-1.28.196-1.89.215.785.323 1.595.322 2.409v9.736a9.116 9.116 0 009.116 9.116h10.772c.648 0 1.281.068 1.891.196z" fill="#FF5B27"/></g><defs><clipPath id="clip0_5_277"><path fill="#fff" d="M0 0h43.558v43.558H0z"/></clipPath></defs></svg>