<svg width="33" height="27" fill="none" xmlns="http://www.w3.org/2000/svg"><path d="M19.362 19.03c0-4.996 1.649-9.579 4.947-13.75 2.086-2.522 3.759-3.614 5.02-3.274 1.164.436 1.746 1.091 1.746 1.964 0 .825-.388 1.698-1.164 2.62-.727.92-1.31 1.673-1.746 2.255a9.143 9.143 0 00-1.091 1.891c-.68 1.358-1.019 3.007-1.019 4.948 1.164-.34 2.328-.194 3.492.436 2.134 1.213 3.201 2.765 3.201 4.656 0 1.843-.581 3.347-1.746 4.511-1.115 1.116-2.667 1.673-4.656 1.673-1.988 0-3.662-.751-5.02-2.255-1.31-1.552-1.964-3.444-1.964-5.675zm-18.916 0c0-5.19 1.625-9.773 4.874-13.75 2.474-2.959 4.535-3.856 6.184-2.692.34.242.51.63.51 1.164 0 .97-.364 1.916-1.092 2.837-.679.922-1.236 1.674-1.673 2.256a9.143 9.143 0 00-1.091 1.891c-.68 1.358-1.019 3.007-1.019 4.948 1.164-.34 2.304-.194 3.42.436 2.085 1.213 3.128 2.765 3.128 4.656 0 1.843-.558 3.347-1.673 4.511-1.116 1.116-2.668 1.673-4.657 1.673-1.988 0-3.637-.751-4.947-2.255C1.1 23.153.446 21.261.446 19.03z" fill="#FF7F25"/></svg>