<svg width="37" height="37" fill="none" xmlns="http://www.w3.org/2000/svg"><path d="M17.03.774a1.662 1.662 0 012.021 0l2.47 1.892c.353.27.798.388 1.238.327l3-.414a1.662 1.662 0 011.77 1.03l1.14 2.85c.17.422.504.756.927.925l2.85 1.14a1.662 1.662 0 011.028 1.77l-.413 3c-.061.44.057.886.327 1.239l1.892 2.47a1.662 1.662 0 010 2.021l-1.892 2.47c-.27.353-.388.798-.328 1.238l.414 3a1.662 1.662 0 01-1.029 1.77l-2.85 1.14a1.662 1.662 0 00-.925.927l-1.14 2.85a1.662 1.662 0 01-1.77 1.029l-3.001-.414a1.661 1.661 0 00-1.238.327l-2.47 1.892a1.662 1.662 0 01-2.021 0l-2.47-1.892a1.662 1.662 0 00-1.238-.327l-3 .413a1.662 1.662 0 01-1.771-1.029l-1.14-2.85a1.662 1.662 0 00-.926-.925l-2.85-1.14a1.662 1.662 0 01-1.029-1.77l.414-3c.06-.44-.057-.886-.327-1.239l-1.892-2.47a1.662 1.662 0 010-2.021l1.892-2.47c.27-.353.388-.799.327-1.238l-.414-3a1.662 1.662 0 011.03-1.771l2.85-1.14c.421-.169.756-.503.925-.926l1.14-2.85a1.662 1.662 0 011.77-1.029l3 .414c.44.06.886-.057 1.238-.327L17.03.774z" fill="#FF7F25"/><path d="M24.936 12.189l-8.549 8.548-3.52-3.52-1.76 1.76 5.28 5.28 10.308-10.308-1.76-1.76z" fill="#fff"/></svg>